<svg width="14" height="16" viewBox="0 0 14 16" xmlns="http://www.w3.org/2000/svg">
<g clip-path="url(#clip0_1621_48744)">
<path d="M7.00016 15C6.44828 15 6.00016 14.5506 6.00016 13.9991H5.00016C5.00016 15.1025 5.89766 16 7.00016 16C8.10266 16 9.00016 15.1025 9.00016 13.9991H8.00016C8.00016 14.5506 7.55204 15 7.00016 15ZM13.5433 10.4628C12.6695 9.63094 12.0014 8.76031 12.0014 5.80937C12.0014 3.32219 10.0205 1.29375 7.50016 1.04844V0.5C7.50016 0.22375 7.27641 0 7.00016 0C6.72391 0 6.50016 0.22375 6.50016 0.5V1.04875C3.97984 1.29406 1.9989 3.32219 1.9989 5.80937C1.9989 8.76 1.33046 9.63094 0.456713 10.4628C0.0201495 10.8784 -0.117663 11.5069 0.10515 12.0638C0.33265 12.6325 0.880151 13 1.50015 13H12.5002C13.1202 13 13.6677 12.6322 13.8952 12.0634C14.118 11.5066 13.9799 10.8784 13.5433 10.4628ZM12.5002 12H1.50015C1.05546 12 0.833276 11.4853 1.1464 11.1872C2.23578 10.15 2.9989 8.98906 2.9989 5.80969C2.9989 3.70406 4.78859 2 7.00016 2C9.21141 2 11.0014 3.70375 11.0014 5.80937C11.0014 8.97656 11.758 10.1438 12.8539 11.1869C13.1683 11.4866 12.943 12 12.5002 12Z" />
</g>
<defs>
<clipPath id="clip0_1621_48744">
<rect width="14" height="16" />
</clipPath>
</defs>
</svg>
