<svg width="22" height="22" viewBox="0 0 22 22" xmlns="http://www.w3.org/2000/svg">
<path d="M11 1.8125C13.5348 1.8125 15.5938 3.87148 15.5938 6.40625C15.5938 8.94102 13.5348 11 11 11C8.46523 11 6.40625 8.94102 6.40625 6.40625C6.40625 3.87148 8.46523 1.8125 11 1.8125ZM16.25 14.9375C18.4197 14.9375 20.1875 16.7053 20.1875 18.875V20.1875H1.8125V18.875C1.8125 16.7053 3.58027 14.9375 5.75 14.9375C9.23633 14.9375 8.51035 15.5938 11 15.5938C13.4979 15.5938 12.7596 14.9375 16.25 14.9375ZM11 0.5C7.73926 0.5 5.09375 3.14551 5.09375 6.40625C5.09375 9.66699 7.73926 12.3125 11 12.3125C14.2607 12.3125 16.9062 9.66699 16.9062 6.40625C16.9062 3.14551 14.2607 0.5 11 0.5ZM16.25 13.625C12.4602 13.625 13.3379 14.2812 11 14.2812C8.67031 14.2812 9.53574 13.625 5.75 13.625C2.8502 13.625 0.5 15.9752 0.5 18.875V20.1875C0.5 20.9135 1.08652 21.5 1.8125 21.5H20.1875C20.9135 21.5 21.5 20.9135 21.5 20.1875V18.875C21.5 15.9752 19.1498 13.625 16.25 13.625Z" />
</svg>
